<svg width="130" height="64" viewBox="0 0 130 64" fill="none" xmlns="http://www.w3.org/2000/svg">
<path d="M3.48 52C3.08 52 2.88 51.8 2.88 51.4V20.608C2.88 20.208 3.08 20.008 3.48 20.008H10.272C10.672 20.008 10.872 20.208 10.872 20.608V33.328H13.848L15.432 27.352L16.872 20.32C16.904 20.224 16.976 20.152 17.088 20.104C17.216 20.04 17.4 20.008 17.64 20.008H24.552C24.952 20.008 25.152 20.208 25.152 20.608V23.608C25.152 23.784 25.128 23.96 25.08 24.136C25.032 24.296 24.992 24.44 24.96 24.568L22.032 31.6L19.992 35.44L22.08 39.232L25.608 47.248C25.672 47.36 25.72 47.48 25.752 47.608C25.784 47.736 25.8 47.92 25.8 48.16V51.4C25.8 51.8 25.6 52 25.2 52H18.048C17.936 52 17.792 51.984 17.616 51.952C17.456 51.904 17.36 51.8 17.328 51.64L15.552 44.032L14.232 39.688H10.872V51.4C10.872 51.8 10.672 52 10.272 52H3.48ZM31.1831 52C30.7831 52 30.5831 51.8 30.5831 51.4V26.2C30.5831 25.8 30.7831 25.6 31.1831 25.6H44.0231C44.3911 25.6 44.7111 25.736 44.9831 26.008L49.7831 30.808C50.0551 31.064 50.1911 31.384 50.1911 31.768V51.4C50.1911 51.8 49.9911 52 49.5911 52H43.1831C42.7831 52 42.5831 51.8 42.5831 51.4V32.728C42.5831 31.976 42.2071 31.6 41.4551 31.6H38.1911V51.4C38.1911 51.8 37.9911 52 37.5911 52H31.1831ZM61.9699 52C61.5859 52 61.2659 51.864 61.0099 51.592L56.2099 46.792C55.9379 46.536 55.8019 46.216 55.8019 45.832V26.2C55.8019 25.8 56.0019 25.6 56.4019 25.6H62.8099C63.2099 25.6 63.4099 25.8 63.4099 26.2V44.872C63.4099 45.624 63.7779 46 64.5139 46H67.8019V26.2C67.8019 25.8 68.0019 25.6 68.4019 25.6H74.8099C75.2099 25.6 75.4099 25.8 75.4099 26.2V51.4C75.4099 51.8 75.2099 52 74.8099 52H61.9699ZM81.6206 52C81.2206 52 81.0206 51.8 81.0206 51.4V26.2C81.0206 25.8 81.2206 25.6 81.6206 25.6H88.0046C88.4046 25.6 88.6046 25.8 88.6046 26.2V51.4C88.6046 51.8 88.4046 52 88.0046 52H81.6206ZM81.5006 23.608C81.1806 23.608 81.0206 23.448 81.0206 23.128V20.08C81.0206 19.76 81.1806 19.6 81.5006 19.6H88.1726C88.4606 19.6 88.6046 19.76 88.6046 20.08V23.128C88.6046 23.448 88.4606 23.608 88.1726 23.608H81.5006ZM96.5205 52C96.2645 52 96.0565 51.968 95.8965 51.904C95.7525 51.84 95.6405 51.736 95.5605 51.592L92.7525 46.792C92.5605 46.44 92.4645 46.176 92.4645 46C92.4645 45.744 92.5605 45.464 92.7525 45.16L100.433 33.064V31.6H92.6325C92.2325 31.6 92.0325 31.4 92.0325 31V26.2C92.0325 25.8 92.2325 25.6 92.6325 25.6H104.441C104.697 25.6 104.897 25.632 105.041 25.696C105.201 25.76 105.321 25.864 105.401 26.008L108.185 30.808C108.265 30.936 108.329 31.072 108.377 31.216C108.441 31.36 108.473 31.504 108.473 31.648C108.473 31.92 108.353 32.24 108.113 32.608L100.385 44.584V46H108.305C108.705 46 108.905 46.2 108.905 46.6V51.4C108.905 51.8 108.705 52 108.305 52H96.5205ZM114.969 52C114.633 52 114.393 51.864 114.249 51.592L111.249 46.528C111.073 46.24 111.041 45.96 111.153 45.688L119.289 26.56L119.073 27.352V25.96L119.313 26.392H112.089C111.689 26.392 111.489 26.192 111.489 25.792V20.608C111.489 20.208 111.689 20.008 112.089 20.008H123.729C124.049 20.008 124.289 20.128 124.449 20.368L127.881 25.192C128.073 25.432 128.097 25.712 127.953 26.032L119.721 45.328L119.913 43.96V46.24L119.529 45.592H127.089C127.489 45.592 127.689 45.792 127.689 46.192V51.4C127.689 51.8 127.489 52 127.089 52H114.969Z" fill="#8E4EC6"/>
<path d="M111.7 17V15.1111H124.3V17H111.7ZM111.7 13.6944L110.553 6.11528C110.523 6.11528 110.489 6.11937 110.451 6.12756C110.413 6.13574 110.379 6.13952 110.35 6.13889C109.975 6.13889 109.656 6.001 109.394 5.72522C109.132 5.44945 109.001 5.11511 109 4.72222C108.999 4.32934 109.131 3.995 109.394 3.71922C109.658 3.44345 109.976 3.30556 110.35 3.30556C110.724 3.30556 111.043 3.44345 111.307 3.71922C111.571 3.995 111.702 4.32934 111.7 4.72222C111.7 4.83241 111.689 4.93472 111.666 5.02917C111.643 5.12361 111.617 5.21019 111.588 5.28889L114.4 6.61111L117.212 2.57361C117.047 2.44769 116.912 2.28241 116.807 2.07778C116.702 1.87315 116.65 1.65278 116.65 1.41667C116.65 1.02315 116.781 0.688502 117.044 0.412724C117.307 0.136947 117.626 -0.000627478 118 2.15135e-06C118.374 0.000631781 118.693 0.138521 118.957 0.413669C119.22 0.688817 119.351 1.02315 119.35 1.41667C119.35 1.65278 119.297 1.87315 119.192 2.07778C119.087 2.28241 118.952 2.44769 118.787 2.57361L121.6 6.61111L124.412 5.28889C124.382 5.21019 124.356 5.12361 124.333 5.02917C124.31 4.93472 124.299 4.83241 124.3 4.72222C124.3 4.32871 124.431 3.99406 124.694 3.71828C124.957 3.4425 125.276 3.30493 125.65 3.30556C126.024 3.30619 126.343 3.44408 126.607 3.71922C126.87 3.99437 127.001 4.32871 127 4.72222C126.999 5.11574 126.868 5.45039 126.607 5.72617C126.346 6.00195 126.027 6.13952 125.65 6.13889C125.62 6.13889 125.586 6.13511 125.549 6.12756C125.512 6.12 125.478 6.11591 125.447 6.11528L124.3 13.6944H111.7Z" fill="#EDEEF0"/>
</svg>
