<svg width="87" height="44" viewBox="0 0 87 44" fill="none" xmlns="http://www.w3.org/2000/svg">
<path d="M2.32 36C2.05333 36 1.92 35.8667 1.92 35.6V15.072C1.92 14.8053 2.05333 14.672 2.32 14.672H6.848C7.11467 14.672 7.248 14.8053 7.248 15.072V23.552H9.232L10.288 19.568L11.248 14.88C11.2693 14.816 11.3173 14.768 11.392 14.736C11.4773 14.6933 11.6 14.672 11.76 14.672H16.368C16.6347 14.672 16.768 14.8053 16.768 15.072V17.072C16.768 17.1893 16.752 17.3067 16.72 17.424C16.688 17.5307 16.6613 17.6267 16.64 17.712L14.688 22.4L13.328 24.96L14.72 27.488L17.072 32.832C17.1147 32.9067 17.1467 32.9867 17.168 33.072C17.1893 33.1573 17.2 33.28 17.2 33.44V35.6C17.2 35.8667 17.0667 36 16.8 36H12.032C11.9573 36 11.8613 35.9893 11.744 35.968C11.6373 35.936 11.5733 35.8667 11.552 35.76L10.368 30.688L9.488 27.792H7.248V35.6C7.248 35.8667 7.11467 36 6.848 36H2.32ZM20.7888 36C20.5221 36 20.3888 35.8667 20.3888 35.6V18.8C20.3888 18.5333 20.5221 18.4 20.7888 18.4H29.3488C29.5941 18.4 29.8074 18.4907 29.9888 18.672L33.1888 21.872C33.3701 22.0427 33.4608 22.256 33.4608 22.512V35.6C33.4608 35.8667 33.3274 36 33.0608 36H28.7888C28.5221 36 28.3888 35.8667 28.3888 35.6V23.152C28.3888 22.6507 28.1381 22.4 27.6368 22.4H25.4608V35.6C25.4608 35.8667 25.3274 36 25.0608 36H20.7888ZM41.3133 36C41.0573 36 40.8439 35.9093 40.6733 35.728L37.4733 32.528C37.2919 32.3573 37.2013 32.144 37.2013 31.888V18.8C37.2013 18.5333 37.3346 18.4 37.6013 18.4H41.8733C42.1399 18.4 42.2733 18.5333 42.2733 18.8V31.248C42.2733 31.7493 42.5186 32 43.0093 32H45.2013V18.8C45.2013 18.5333 45.3346 18.4 45.6013 18.4H49.8733C50.1399 18.4 50.2733 18.5333 50.2733 18.8V35.6C50.2733 35.8667 50.1399 36 49.8733 36H41.3133ZM54.4138 36C54.1471 36 54.0138 35.8667 54.0138 35.6V18.8C54.0138 18.5333 54.1471 18.4 54.4138 18.4H58.6698C58.9364 18.4 59.0698 18.5333 59.0698 18.8V35.6C59.0698 35.8667 58.9364 36 58.6698 36H54.4138ZM54.3338 17.072C54.1204 17.072 54.0138 16.9653 54.0138 16.752V14.72C54.0138 14.5067 54.1204 14.4 54.3338 14.4H58.7818C58.9738 14.4 59.0698 14.5067 59.0698 14.72V16.752C59.0698 16.9653 58.9738 17.072 58.7818 17.072H54.3338ZM64.347 36C64.1763 36 64.0377 35.9787 63.931 35.936C63.835 35.8933 63.7603 35.824 63.707 35.728L61.835 32.528C61.707 32.2933 61.643 32.1173 61.643 32C61.643 31.8293 61.707 31.6427 61.835 31.44L66.955 23.376V22.4H61.755C61.4883 22.4 61.355 22.2667 61.355 22V18.8C61.355 18.5333 61.4883 18.4 61.755 18.4H69.627C69.7977 18.4 69.931 18.4213 70.027 18.464C70.1337 18.5067 70.2137 18.576 70.267 18.672L72.123 21.872C72.1763 21.9573 72.219 22.048 72.251 22.144C72.2937 22.24 72.315 22.336 72.315 22.432C72.315 22.6133 72.235 22.8267 72.075 23.072L66.923 31.056V32H72.203C72.4697 32 72.603 32.1333 72.603 32.4V35.6C72.603 35.8667 72.4697 36 72.203 36H64.347ZM76.6458 36C76.4218 36 76.2618 35.9093 76.1658 35.728L74.1658 32.352C74.0484 32.16 74.0271 31.9733 74.1018 31.792L79.5258 19.04L79.3818 19.568V18.64L79.5418 18.928H74.7258C74.4591 18.928 74.3258 18.7947 74.3258 18.528V15.072C74.3258 14.8053 74.4591 14.672 74.7258 14.672H82.4858C82.6991 14.672 82.8591 14.752 82.9658 14.912L85.2538 18.128C85.3818 18.288 85.3978 18.4747 85.3018 18.688L79.8138 31.552L79.9418 30.64V32.16L79.6858 31.728H84.7258C84.9924 31.728 85.1258 31.8613 85.1258 32.128V35.6C85.1258 35.8667 84.9924 36 84.7258 36H76.6458Z" fill="#8E4EC6"/>
<path d="M74.1 13V11.5556H83.9V13H74.1ZM74.1 10.4722L73.2075 4.67639C73.1842 4.67639 73.1578 4.67952 73.1284 4.68578C73.099 4.69204 73.0729 4.69493 73.05 4.69445C72.7583 4.69445 72.5105 4.589 72.3066 4.37811C72.1027 4.16722 72.0005 3.91156 72 3.61111C71.9995 3.31067 72.1017 3.055 72.3066 2.84411C72.5115 2.63322 72.7593 2.52778 73.05 2.52778C73.3407 2.52778 73.5888 2.63322 73.7941 2.84411C73.9994 3.055 74.1014 3.31067 74.1 3.61111C74.1 3.69537 74.0911 3.77361 74.0734 3.84583C74.0557 3.91806 74.0354 3.98426 74.0125 4.04445L76.2 5.05556L78.3875 1.96806C78.2592 1.87176 78.1542 1.74537 78.0725 1.58889C77.9908 1.43241 77.95 1.26389 77.95 1.08333C77.95 0.782409 78.0522 0.526502 78.2566 0.315613C78.461 0.104724 78.7088 -0.000479836 79 1.64515e-06C79.2912 0.000483127 79.5392 0.105928 79.7441 0.316335C79.949 0.526742 80.0509 0.782409 80.05 1.08333C80.05 1.26389 80.0092 1.43241 79.9275 1.58889C79.8458 1.74537 79.7408 1.87176 79.6125 1.96806L81.8 5.05556L83.9875 4.04445C83.9642 3.98426 83.9436 3.91806 83.9259 3.84583C83.9082 3.77361 83.8995 3.69537 83.9 3.61111C83.9 3.31019 84.0022 3.05428 84.2066 2.84339C84.411 2.6325 84.6588 2.5273 84.95 2.52778C85.2412 2.52826 85.4892 2.63371 85.6941 2.84411C85.899 3.05452 86.0009 3.31019 86 3.61111C85.9991 3.91204 85.8971 4.16795 85.6941 4.37883C85.4911 4.58972 85.2431 4.69493 84.95 4.69445C84.9267 4.69445 84.9005 4.69156 84.8716 4.68578C84.8427 4.68 84.8163 4.67687 84.7925 4.67639L83.9 10.4722H74.1Z" fill="#EDEEF0"/>
</svg>
